{
  "accessors": [
    {
      "bufferView": 2,
      "componentType": 5126,
      "count": 65532,
      "max": [
        48.772464752197266,
        31.472211837768555,
        1.699931025505066
      ],
      "min": [
        -48.6327018737793,
        -48.46211242675781,
        -1.0898040533065796
      ],
      "type": "VEC3"
    },
    {
      "bufferView": 2,
      "byteOffset": 786384,
      "componentType": 5126,
      "count": 65532,
      "max": [
        0.9999907612800598,
        0.9992666244506836,
        1.0
      ],
      "min": [
        -0.9999142289161682,
        -0.9997773766517639,
        -1.0
      ],
      "type": "VEC3"
    },
    {
      "bufferView": 3,
      "componentType": 5126,
      "count": 65532,
      "max": [
        0.9999997615814209,
        1.0,
        0.9999990463256836,
        1.0
      ],
      "min": [
        -0.9999996423721313,
        -1.0,
        -0.9999998807907104,
        -1.0
      ],
      "type": "VEC4"
    },
    {
      "bufferView": 1,
      "componentType": 5126,
      "count": 65532,
      "max": [
        0.9950000047683716,
        0.9933720231056213
      ],
      "min": [
        0.004999999888241291,
        0.004999999888241291
      ],
      "type": "VEC2"
    },
    {
      "bufferView": 0,
      "componentType": 5125,
      "count": 341163,
      "type": "SCALAR"
    },
    {
      "bufferView": 2,
      "byteOffset": 1572768,
      "componentType": 5126,
      "count": 65532,
      "max": [
        48.772464752197266,
        38.94476318359375,
        1.6999200582504272
      ],
      "min": [
        -48.4281120300293,
        -32.64075469970703,
        -1.0000330209732056
      ],
      "type": "VEC3"
    },
    {
      "bufferView": 2,
      "byteOffset": 2359152,
      "componentType": 5126,
      "count": 65532,
      "max": [
        0.9997923374176025,
        0.9435877799987793,
        1.0
      ],
      "min": [
        -0.9948794841766357,
        -0.950760006904602,
        -1.0
      ],
      "type": "VEC3"
    },
    {
      "bufferView": 3,
      "byteOffset": 1048512,
      "componentType": 5126,
      "count": 65532,
      "max": [
        0.9999972581863403,
        1.0,
        0.9999991059303284,
        1.0
      ],
      "min": [
        -0.999995768070221,
        -1.0,
        -0.9999909996986389,
        -1.0
      ],
      "type": "VEC4"
    },
    {
      "bufferView": 1,
      "byteOffset": 524256,
      "componentType": 5126,
      "count": 65532,
      "max": [
        0.9041780233383179,
        0.990962028503418
      ],
      "min": [
        0.004999999888241291,
        0.004999999888241291
      ],
      "type": "VEC2"
    },
    {
      "bufferView": 0,
      "byteOffset": 1364652,
      "componentType": 5125,
      "count": 309726,
      "type": "SCALAR"
    },
    {
      "bufferView": 2,
      "byteOffset": 3145536,
      "componentType": 5126,
      "count": 65532,
      "max": [
        48.62667465209961,
        48.470821380615234,
        1.6999269723892212
      ],
      "min": [
        -48.26856994628906,
        -0.5603560209274292,
        -1.0000250339508057
      ],
      "type": "VEC3"
    },
    {
      "bufferView": 2,
      "byteOffset": 3931920,
      "componentType": 5126,
      "count": 65532,
      "max": [
        0.9918692111968994,
        0.9375165104866028,
        1.0
      ],
      "min": [
        -0.9794511198997498,
        -0.9092586040496826,
        -1.0
      ],
      "type": "VEC3"
    },
    {
      "bufferView": 3,
      "byteOffset": 2097024,
      "componentType": 5126,
      "count": 65532,
      "max": [
        0.9999696016311646,
        1.0,
        1.0,
        1.0
      ],
      "min": [
        -0.999915599822998,
        -1.0,
        -0.9999969005584717,
        -1.0
      ],
      "type": "VEC4"
    },
    {
      "bufferView": 1,
      "byteOffset": 1048512,
      "componentType": 5126,
      "count": 65532,
      "max": [
        0.7274580001831055,
        0.9910579919815063
      ],
      "min": [
        0.004999999888241291,
        0.004999999888241291
      ],
      "type": "VEC2"
    },
    {
      "bufferView": 0,
      "byteOffset": 2603556,
      "componentType": 5125,
      "count": 345570,
      "type": "SCALAR"
    },
    {
      "bufferView": 2,
      "byteOffset": 4718304,
      "componentType": 5126,
      "count": 60623,
      "max": [
        48.77053451538086,
        48.78759765625,
        1.6999130249023438
      ],
      "min": [
        -48.62629318237305,
        -7.004454135894775,
        -1.0000189542770386
      ],
      "type": "VEC3"
    },
    {
      "bufferView": 2,
      "byteOffset": 5445780,
      "componentType": 5126,
      "count": 60623,
      "max": [
        0.9999907612800598,
        0.999894380569458,
        1.0
      ],
      "min": [
        -0.9997373819351196,
        -0.9355493783950806,
        -1.0
      ],
      "type": "VEC3"
    },
    {
      "bufferView": 3,
      "byteOffset": 3145536,
      "componentType": 5126,
      "count": 60623,
      "max": [
        0.9999999403953552,
        1.0,
        1.0,
        1.0
      ],
      "min": [
        -0.9999996423721313,
        -1.0,
        -0.9999942183494568,
        -1.0
      ],
      "type": "VEC4"
    },
    {
      "bufferView": 1,
      "byteOffset": 1572768,
      "componentType": 5126,
      "count": 60623,
      "max": [
        0.7689480185508728,
        0.9932669997215271
      ],
      "min": [
        0.004999999888241291,
        0.004999999888241291
      ],
      "type": "VEC2"
    },
    {
      "bufferView": 0,
      "byteOffset": 3985836,
      "componentType": 5125,
      "count": 252399,
      "type": "SCALAR"
    }
  ],
  "asset": {
    "extras": {
      "author": "Igor Denisov (https://sketchfab.com/Digor)",
      "license": "CC-BY-NC-ND-4.0 (http://creativecommons.org/licenses/by-nc-nd/4.0/)",
      "source": "https://sketchfab.com/3d-models/mirror-with-a-picture-7334c3ff47bb409c807ae09c176b0382",
      "title": "Mirror with a picture."
    },
    "generator": "Sketchfab-12.67.0",
    "version": "2.0"
  },
  "bufferViews": [
    {
      "buffer": 0,
      "byteLength": 4995432,
      "name": "floatBufferViews",
      "target": 34963
    },
    {
      "buffer": 0,
      "byteLength": 2057752,
      "byteOffset": 4995432,
      "byteStride": 8,
      "name": "floatBufferViews",
      "target": 34962
    },
    {
      "buffer": 0,
      "byteLength": 6173256,
      "byteOffset": 7053184,
      "byteStride": 12,
      "name": "floatBufferViews",
      "target": 34962
    },
    {
      "buffer": 0,
      "byteLength": 4115504,
      "byteOffset": 13226440,
      "byteStride": 16,
      "name": "floatBufferViews",
      "target": 34962
    }
  ],
  "buffers": [
    {
      "byteLength": 17341944,
      "uri": "scene.bin"
    }
  ],
  "images": [
    {
      "uri": "textures/SogdMir_baseColor.jpeg"
    },
    {
      "uri": "textures/SogdMir_metallicRoughness.png"
    },
    {
      "uri": "textures/SogdMir_normal.png"
    }
  ],
  "materials": [
    {
      "doubleSided": true,
      "name": "SogdMir",
      "normalTexture": {
        "index": 2
      },
      "pbrMetallicRoughness": {
        "baseColorTexture": {
          "index": 0
        },
        "metallicRoughnessTexture": {
          "index": 1
        },
        "roughnessFactor": 0.6
      }
    }
  ],
  "meshes": [
    {
      "name": "Object_0",
      "primitives": [
        {
          "attributes": {
            "NORMAL": 1,
            "POSITION": 0,
            "TANGENT": 2,
            "TEXCOORD_0": 3
          },
          "indices": 4,
          "material": 0,
          "mode": 4
        }
      ]
    },
    {
      "name": "Object_1",
      "primitives": [
        {
          "attributes": {
            "NORMAL": 6,
            "POSITION": 5,
            "TANGENT": 7,
            "TEXCOORD_0": 8
          },
          "indices": 9,
          "material": 0,
          "mode": 4
        }
      ]
    },
    {
      "name": "Object_2",
      "primitives": [
        {
          "attributes": {
            "NORMAL": 11,
            "POSITION": 10,
            "TANGENT": 12,
            "TEXCOORD_0": 13
          },
          "indices": 14,
          "material": 0,
          "mode": 4
        }
      ]
    },
    {
      "name": "Object_3",
      "primitives": [
        {
          "attributes": {
            "NORMAL": 16,
            "POSITION": 15,
            "TANGENT": 17,
            "TEXCOORD_0": 18
          },
          "indices": 19,
          "material": 0,
          "mode": 4
        }
      ]
    }
  ],
  "nodes": [
    {
      "children": [
        1
      ],
      "matrix": [
        0.0129791044385974,
        -0.0014658192120226982,
        -1.7340986812837303e-05,
        0.0,
        0.0014637335205861385,
        0.012967262164449767,
        -0.0005600681464595815,
        0.0,
        8.006842499651366e-05,
        0.0005545863942698666,
        0.013049601431979974,
        0.0,
        -0.019674496725201607,
        0.13831603527069103,
        -0.4605302214622497,
        1.0
      ],
      "name": "Sketchfab_model"
    },
    {
      "children": [
        2,
        3,
        4,
        5
      ],
      "name": "SogdMir.obj.cleaner.materialmerger.gles"
    },
    {
      "mesh": 0,
      "name": "Object_2"
    },
    {
      "mesh": 1,
      "name": "Object_3"
    },
    {
      "mesh": 2,
      "name": "Object_4"
    },
    {
      "mesh": 3,
      "name": "Object_5"
    }
  ],
  "samplers": [
    {
      "magFilter": 9729,
      "minFilter": 9987,
      "wrapS": 10497,
      "wrapT": 10497
    }
  ],
  "scene": 0,
  "scenes": [
    {
      "name": "Sketchfab_Scene",
      "nodes": [
        0
      ]
    }
  ],
  "textures": [
    {
      "sampler": 0,
      "source": 0
    },
    {
      "sampler": 0,
      "source": 1
    },
    {
      "sampler": 0,
      "source": 2
    }
  ]
}
