{
  "accessors": [
    {
      "bufferView": 2,
      "componentType": 5126,
      "count": 77,
      "max": [
        2.6412811279296875,
        8.227076530456543,
        -4.971557140350342
      ],
      "min": [
        1.1903232336044312,
        7.4887776374816895,
        -5.093677520751953
      ],
      "type": "VEC3"
    },
    {
      "bufferView": 2,
      "byteOffset": 924,
      "componentType": 5126,
      "count": 77,
      "max": [
        0.9701730012893677,
        0.06909406185150146,
        -0.07245606929063797
      ],
      "min": [
        -0.9701792597770691,
        -0.9831772446632385,
        -1.0
      ],
      "type": "VEC3"
    },
    {
      "bufferView": 1,
      "componentType": 5126,
      "count": 77,
      "max": [
        0.5744850039482117,
        0.2961130142211914
      ],
      "min": [
        0.5175151228904724,
        0.25757500529289246
      ],
      "type": "VEC2"
    },
    {
      "bufferView": 0,
      "componentType": 5125,
      "count": 360,
      "type": "SCALAR"
    },
    {
      "bufferView": 2,
      "byteOffset": 1848,
      "componentType": 5126,
      "count": 698,
      "max": [
        2.61374568939209,
        11.011693954467773,
        -2.7337629795074463
      ],
      "min": [
        0.701995849609375,
        10.467134475708008,
        -4.582315444946289
      ],
      "type": "VEC3"
    },
    {
      "bufferView": 2,
      "byteOffset": 10224,
      "componentType": 5126,
      "count": 698,
      "max": [
        0.9999619722366333,
        0.9999999403953552,
        0.9999879002571106
      ],
      "min": [
        -0.9999617338180542,
        -0.9999999403953552,
        -0.9999819993972778
      ],
      "type": "VEC3"
    },
    {
      "bufferView": 1,
      "byteOffset": 616,
      "componentType": 5126,
      "count": 698,
      "max": [
        0.654024064540863,
        0.29291099309921265
      ],
      "min": [
        0.5859739184379578,
        0.22508899867534637
      ],
      "type": "VEC2"
    },
    {
      "bufferView": 0,
      "byteOffset": 1440,
      "componentType": 5125,
      "count": 4176,
      "type": "SCALAR"
    },
    {
      "bufferView": 2,
      "byteOffset": 18600,
      "componentType": 5126,
      "count": 2531,
      "max": [
        4.410559177398682,
        9.795721054077148,
        -0.7034686803817749
      ],
      "min": [
        -5.895139694213867,
        6.824969291687012,
        -6.020853042602539
      ],
      "type": "VEC3"
    },
    {
      "bufferView": 2,
      "byteOffset": 48972,
      "componentType": 5126,
      "count": 2531,
      "max": [
        0.9998620748519897,
        0.9999880790710449,
        0.9974759221076965
      ],
      "min": [
        -0.999862015247345,
        -0.9997716546058655,
        -1.0
      ],
      "type": "VEC3"
    },
    {
      "bufferView": 1,
      "byteOffset": 6200,
      "componentType": 5126,
      "count": 2531,
      "max": [
        0.8151661157608032,
        0.6546760201454163
      ],
      "min": [
        0.6742162704467773,
        0.22702062129974365
      ],
      "type": "VEC2"
    },
    {
      "bufferView": 0,
      "byteOffset": 18144,
      "componentType": 5125,
      "count": 14232,
      "type": "SCALAR"
    },
    {
      "bufferView": 2,
      "byteOffset": 79344,
      "componentType": 5126,
      "count": 3313,
      "max": [
        -0.8326691389083862,
        4.459712028503418,
        -5.018836975097656
      ],
      "min": [
        -4.234281063079834,
        1.0580919981002808,
        -5.532121181488037
      ],
      "type": "VEC3"
    },
    {
      "bufferView": 2,
      "byteOffset": 119100,
      "componentType": 5126,
      "count": 3313,
      "max": [
        1.0,
        1.0,
        0.5343413949012756
      ],
      "min": [
        -1.0,
        -1.0,
        -1.0
      ],
      "type": "VEC3"
    },
    {
      "bufferView": 1,
      "byteOffset": 26448,
      "componentType": 5126,
      "count": 3313,
      "max": [
        0.564965009689331,
        0.8944720029830933
      ],
      "min": [
        0.3851037621498108,
        0.71555495262146
      ],
      "type": "VEC2"
    },
    {
      "bufferView": 0,
      "byteOffset": 75072,
      "componentType": 5125,
      "count": 19296,
      "type": "SCALAR"
    },
    {
      "bufferView": 2,
      "byteOffset": 158856,
      "componentType": 5126,
      "count": 185,
      "max": [
        5.358212947845459,
        6.557565212249756,
        -4.915205001831055
      ],
      "min": [
        -0.3416076898574829,
        1.7312250137329102,
        -5.145293712615967
      ],
      "type": "VEC3"
    },
    {
      "bufferView": 2,
      "byteOffset": 161076,
      "componentType": 5126,
      "count": 185,
      "max": [
        1.0,
        1.0,
        7.65848653827561e-06
      ],
      "min": [
        -1.0,
        -1.0,
        -1.0
      ],
      "type": "VEC3"
    },
    {
      "bufferView": 1,
      "byteOffset": 52952,
      "componentType": 5126,
      "count": 185,
      "max": [
        0.9889200925827026,
        0.8499050140380859
      ],
      "min": [
        0.01105405017733574,
        0.01104385033249855
      ],
      "type": "VEC2"
    },
    {
      "bufferView": 0,
      "byteOffset": 152256,
      "componentType": 5125,
      "count": 984,
      "type": "SCALAR"
    },
    {
      "bufferView": 2,
      "byteOffset": 163296,
      "componentType": 5126,
      "count": 1249,
      "max": [
        4.6750102043151855,
        7.155740737915039,
        6.587666988372803
      ],
      "min": [
        -1.1652922630310059,
        1.3154327869415283,
        5.9445271492004395
      ],
      "type": "VEC3"
    },
    {
      "bufferView": 2,
      "byteOffset": 178284,
      "componentType": 5126,
      "count": 1249,
      "max": [
        0.38483521342277527,
        0.3848361372947693,
        1.0
      ],
      "min": [
        -0.38483932614326477,
        -0.3848479092121124,
        0.9229657053947449
      ],
      "type": "VEC3"
    },
    {
      "bufferView": 1,
      "byteOffset": 54432,
      "componentType": 5126,
      "count": 1249,
      "max": [
        0.9854421019554138,
        0.9849106669425964
      ],
      "min": [
        0.014576587826013565,
        0.014549188315868378
      ],
      "type": "VEC2"
    },
    {
      "bufferView": 0,
      "byteOffset": 156192,
      "componentType": 5125,
      "count": 7296,
      "type": "SCALAR"
    },
    {
      "bufferView": 2,
      "byteOffset": 193272,
      "componentType": 5126,
      "count": 11116,
      "max": [
        6.562344551086426,
        9.065960884094238,
        0.8080931305885315
      ],
      "min": [
        -6.315091133117676,
        0.36801791191101074,
        -5.458992958068848
      ],
      "type": "VEC3"
    },
    {
      "bufferView": 2,
      "byteOffset": 326664,
      "componentType": 5126,
      "count": 11116,
      "max": [
        1.0,
        1.0,
        1.0
      ],
      "min": [
        -1.0,
        -1.0,
        -1.0
      ],
      "type": "VEC3"
    },
    {
      "bufferView": 1,
      "byteOffset": 64424,
      "componentType": 5126,
      "count": 11116,
      "max": [
        0.9893953800201416,
        0.988230288028717
      ],
      "min": [
        0.7205711603164673,
        0.5361144542694092
      ],
      "type": "VEC2"
    },
    {
      "bufferView": 0,
      "byteOffset": 185376,
      "componentType": 5125,
      "count": 64032,
      "type": "SCALAR"
    },
    {
      "bufferView": 2,
      "byteOffset": 460056,
      "componentType": 5126,
      "count": 553,
      "max": [
        -2.52432918548584,
        9.19648265838623,
        -2.506077289581299
      ],
      "min": [
        -4.636776924133301,
        8.367034912109375,
        -4.586545467376709
      ],
      "type": "VEC3"
    },
    {
      "bufferView": 2,
      "byteOffset": 466692,
      "componentType": 5126,
      "count": 553,
      "max": [
        0.9953953623771667,
        0.9999818801879883,
        1.0
      ],
      "min": [
        -0.9983001351356506,
        -0.09585753083229065,
        -1.0
      ],
      "type": "VEC3"
    },
    {
      "bufferView": 1,
      "byteOffset": 153352,
      "componentType": 5126,
      "count": 553,
      "max": [
        0.6925011873245239,
        0.7862607836723328
      ],
      "min": [
        0.3203290104866028,
        0.41409438848495483
      ],
      "type": "VEC2"
    },
    {
      "bufferView": 0,
      "byteOffset": 441504,
      "componentType": 5125,
      "count": 3168,
      "type": "SCALAR"
    },
    {
      "bufferView": 2,
      "byteOffset": 473328,
      "componentType": 5126,
      "count": 2280,
      "max": [
        5.175003528594971,
        7.655714988708496,
        4.263566970825195
      ],
      "min": [
        -1.6652817726135254,
        0.815445601940155,
        3.458894968032837
      ],
      "type": "VEC3"
    },
    {
      "bufferView": 2,
      "byteOffset": 500688,
      "componentType": 5126,
      "count": 2280,
      "max": [
        0.9999602437019348,
        0.9999602437019348,
        0.8207353353500366
      ],
      "min": [
        -0.99996018409729,
        -0.9999602437019348,
        -0.8303288221359253
      ],
      "type": "VEC3"
    },
    {
      "bufferView": 1,
      "byteOffset": 157776,
      "componentType": 5126,
      "count": 2280,
      "max": [
        0.5205070972442627,
        0.8374680876731873
      ],
      "min": [
        0.010091212578117847,
        0.23101100325584412
      ],
      "type": "VEC2"
    },
    {
      "bufferView": 0,
      "byteOffset": 454176,
      "componentType": 5125,
      "count": 11520,
      "type": "SCALAR"
    },
    {
      "bufferView": 2,
      "byteOffset": 528048,
      "componentType": 5126,
      "count": 18480,
      "max": [
        5.249795913696289,
        7.730525970458984,
        6.442643165588379
      ],
      "min": [
        -1.7400754690170288,
        0.7406483888626099,
        -0.6154155731201172
      ],
      "type": "VEC3"
    },
    {
      "bufferView": 2,
      "byteOffset": 749808,
      "componentType": 5126,
      "count": 18480,
      "max": [
        1.0,
        1.0,
        1.0
      ],
      "min": [
        -1.0,
        -1.0,
        -1.0
      ],
      "type": "VEC3"
    },
    {
      "bufferView": 1,
      "byteOffset": 176016,
      "componentType": 5126,
      "count": 18480,
      "max": [
        0.9843640923500061,
        0.9900000095367432
      ],
      "min": [
        0.009999999776482582,
        0.011508550494909286
      ],
      "type": "VEC2"
    },
    {
      "bufferView": 0,
      "byteOffset": 500256,
      "componentType": 5125,
      "count": 104448,
      "type": "SCALAR"
    },
    {
      "bufferView": 2,
      "byteOffset": 971568,
      "componentType": 5126,
      "count": 12797,
      "max": [
        7.27097749710083,
        10.773462295532227,
        1.7644245624542236
      ],
      "min": [
        -7.27047872543335,
        -0.0036533751990646124,
        -5.889249801635742
      ],
      "type": "VEC3"
    },
    {
      "bufferView": 2,
      "byteOffset": 1125132,
      "componentType": 5126,
      "count": 12797,
      "max": [
        1.0,
        1.0,
        1.0
      ],
      "min": [
        -1.0,
        -1.0,
        -1.0
      ],
      "type": "VEC3"
    },
    {
      "bufferView": 1,
      "byteOffset": 323856,
      "componentType": 5126,
      "count": 12797,
      "max": [
        0.9900000095367432,
        0.9800410270690918
      ],
      "min": [
        0.010082850232720375,
        0.009999999776482582
      ],
      "type": "VEC2"
    },
    {
      "bufferView": 0,
      "byteOffset": 918048,
      "componentType": 5125,
      "count": 70848,
      "type": "SCALAR"
    },
    {
      "bufferView": 2,
      "byteOffset": 1278696,
      "componentType": 5126,
      "count": 3131,
      "max": [
        7.008645057678223,
        8.561088562011719,
        -4.746490955352783
      ],
      "min": [
        -4.736433029174805,
        0.19463050365447998,
        -5.298692226409912
      ],
      "type": "VEC3"
    },
    {
      "bufferView": 2,
      "byteOffset": 1316268,
      "componentType": 5126,
      "count": 3131,
      "max": [
        0.9773114919662476,
        0.9840450286865234,
        0.4495011270046234
      ],
      "min": [
        -0.931544303894043,
        -0.988455057144165,
        -1.0
      ],
      "type": "VEC3"
    },
    {
      "bufferView": 1,
      "byteOffset": 426232,
      "componentType": 5126,
      "count": 3131,
      "max": [
        0.9927029013633728,
        0.8530330061912537
      ],
      "min": [
        0.6030200719833374,
        0.5761479735374451
      ],
      "type": "VEC2"
    },
    {
      "bufferView": 0,
      "byteOffset": 1201440,
      "componentType": 5125,
      "count": 17064,
      "type": "SCALAR"
    }
  ],
  "asset": {
    "extras": {
      "author": "yankobe (https://sketchfab.com/yankobe.do)",
      "license": "CC-BY-4.0 (http://creativecommons.org/licenses/by/4.0/)",
      "source": "https://sketchfab.com/3d-models/camera-0271249da54741cbb552d01851fbdc12",
      "title": "Camera"
    },
    "generator": "Sketchfab-16.12.0",
    "version": "2.0"
  },
  "bufferViews": [
    {
      "buffer": 0,
      "byteLength": 1269696,
      "name": "floatBufferViews",
      "target": 34963
    },
    {
      "buffer": 0,
      "byteLength": 451280,
      "byteOffset": 1269696,
      "byteStride": 8,
      "name": "floatBufferViews",
      "target": 34962
    },
    {
      "buffer": 0,
      "byteLength": 1353840,
      "byteOffset": 1720976,
      "byteStride": 12,
      "name": "floatBufferViews",
      "target": 34962
    }
  ],
  "buffers": [
    {
      "byteLength": 3074816,
      "uri": "scene.bin"
    }
  ],
  "images": [
    {
      "uri": "textures/Lens_baseColor.jpeg"
    },
    {
      "uri": "textures/Dial_baseColor.png"
    }
  ],
  "materials": [
    {
      "doubleSided": true,
      "name": "Glass",
      "pbrMetallicRoughness": {
        "baseColorFactor": [
          0.729412,
          0.729412,
          0.729412,
          1.0
        ],
        "metallicFactor": 0.0,
        "roughnessFactor": 0.9577051494623774
      }
    },
    {
      "doubleSided": true,
      "name": "Metal",
      "pbrMetallicRoughness": {
        "baseColorFactor": [
          0.2796347478392315,
          0.28077624007996976,
          0.28077624007996976,
          1.0
        ],
        "metallicFactor": 0.0,
        "roughnessFactor": 0.10552108349282596
      }
    },
    {
      "doubleSided": true,
      "name": "Rubber",
      "pbrMetallicRoughness": {
        "baseColorFactor": [
          0.2,
          0.2,
          0.2,
          1.0
        ],
        "metallicFactor": 0.0,
        "roughnessFactor": 0.9577051494623774
      }
    },
    {
      "doubleSided": true,
      "name": "Dial_2",
      "pbrMetallicRoughness": {
        "baseColorFactor": [
          0.0,
          0.0,
          0.0,
          1.0
        ],
        "metallicFactor": 0.0,
        "roughnessFactor": 0.9577051494623774
      }
    },
    {
      "doubleSided": true,
      "name": "Screen",
      "pbrMetallicRoughness": {
        "baseColorFactor": [
          0.615686,
          0.615686,
          0.615686,
          1.0
        ],
        "metallicFactor": 0.0,
        "roughnessFactor": 0.9577051494623774
      }
    },
    {
      "doubleSided": true,
      "name": "Lens",
      "pbrMetallicRoughness": {
        "baseColorTexture": {
          "index": 0
        },
        "metallicFactor": 0.0,
        "roughnessFactor": 0.9577051494623774
      }
    },
    {
      "doubleSided": true,
      "name": "Button",
      "pbrMetallicRoughness": {
        "baseColorFactor": [
          0.0,
          0.0,
          0.0,
          1.0
        ],
        "metallicFactor": 0.0,
        "roughnessFactor": 0.9577051494623774
      }
    },
    {
      "doubleSided": true,
      "name": "Dial",
      "pbrMetallicRoughness": {
        "baseColorFactor": [
          0.14476234594238763,
          0.14476234594238763,
          0.14476234594238763,
          1.0
        ],
        "baseColorTexture": {
          "index": 1
        },
        "metallicFactor": 0.0,
        "roughnessFactor": 0.44685545708329777
      }
    },
    {
      "doubleSided": true,
      "name": "Lens_Grip",
      "pbrMetallicRoughness": {
        "baseColorFactor": [
          0.0,
          0.0,
          0.0,
          1.0
        ],
        "metallicFactor": 0.0,
        "roughnessFactor": 0.9577051494623774
      }
    },
    {
      "doubleSided": true,
      "name": "Lens_Outer",
      "pbrMetallicRoughness": {
        "baseColorFactor": [
          0.12647657592861233,
          0.12647657592861233,
          0.12647657592861233,
          1.0
        ],
        "baseColorTexture": {
          "index": 1
        },
        "metallicFactor": 0.0,
        "roughnessFactor": 0.08114005680779224
      }
    },
    {
      "doubleSided": true,
      "name": "Camera_Outer",
      "pbrMetallicRoughness": {
        "baseColorFactor": [
          0.01676195584596067,
          0.01676195584596067,
          0.01676195584596067,
          1.0
        ],
        "metallicFactor": 0.0,
        "roughnessFactor": 0.2761882702880619
      }
    },
    {
      "doubleSided": true,
      "name": "Back_Outer",
      "pbrMetallicRoughness": {
        "baseColorFactor": [
          0.05336330929770452,
          0.05336330929770452,
          0.05336330929770452,
          1.0
        ],
        "metallicFactor": 0.0,
        "roughnessFactor": 0.42247443039826416
      }
    }
  ],
  "meshes": [
    {
      "name": "DSLR Camera.Shape_Glass_0",
      "primitives": [
        {
          "attributes": {
            "NORMAL": 1,
            "POSITION": 0,
            "TEXCOORD_0": 2
          },
          "indices": 3,
          "material": 0,
          "mode": 4
        }
      ]
    },
    {
      "name": "DSLR Camera.Shape_Metal_0",
      "primitives": [
        {
          "attributes": {
            "NORMAL": 5,
            "POSITION": 4,
            "TEXCOORD_0": 6
          },
          "indices": 7,
          "material": 1,
          "mode": 4
        }
      ]
    },
    {
      "name": "DSLR Camera.Shape_Rubber_0",
      "primitives": [
        {
          "attributes": {
            "NORMAL": 9,
            "POSITION": 8,
            "TEXCOORD_0": 10
          },
          "indices": 11,
          "material": 2,
          "mode": 4
        }
      ]
    },
    {
      "name": "DSLR Camera.Shape_Dial_2_0",
      "primitives": [
        {
          "attributes": {
            "NORMAL": 13,
            "POSITION": 12,
            "TEXCOORD_0": 14
          },
          "indices": 15,
          "material": 3,
          "mode": 4
        }
      ]
    },
    {
      "name": "DSLR Camera.Shape_Screen_0",
      "primitives": [
        {
          "attributes": {
            "NORMAL": 17,
            "POSITION": 16,
            "TEXCOORD_0": 18
          },
          "indices": 19,
          "material": 4,
          "mode": 4
        }
      ]
    },
    {
      "name": "DSLR Camera.Shape_Lens_0",
      "primitives": [
        {
          "attributes": {
            "NORMAL": 21,
            "POSITION": 20,
            "TEXCOORD_0": 22
          },
          "indices": 23,
          "material": 5,
          "mode": 4
        }
      ]
    },
    {
      "name": "DSLR Camera.Shape_Button_0",
      "primitives": [
        {
          "attributes": {
            "NORMAL": 25,
            "POSITION": 24,
            "TEXCOORD_0": 26
          },
          "indices": 27,
          "material": 6,
          "mode": 4
        }
      ]
    },
    {
      "name": "DSLR Camera.Shape_Dial_0",
      "primitives": [
        {
          "attributes": {
            "NORMAL": 29,
            "POSITION": 28,
            "TEXCOORD_0": 30
          },
          "indices": 31,
          "material": 7,
          "mode": 4
        }
      ]
    },
    {
      "name": "DSLR Camera.Shape_Lens_Grip_0",
      "primitives": [
        {
          "attributes": {
            "NORMAL": 33,
            "POSITION": 32,
            "TEXCOORD_0": 34
          },
          "indices": 35,
          "material": 8,
          "mode": 4
        }
      ]
    },
    {
      "name": "DSLR Camera.Shape_Lens_Outer_0",
      "primitives": [
        {
          "attributes": {
            "NORMAL": 37,
            "POSITION": 36,
            "TEXCOORD_0": 38
          },
          "indices": 39,
          "material": 9,
          "mode": 4
        }
      ]
    },
    {
      "name": "DSLR Camera.Shape_Camera_Outer_0",
      "primitives": [
        {
          "attributes": {
            "NORMAL": 41,
            "POSITION": 40,
            "TEXCOORD_0": 42
          },
          "indices": 43,
          "material": 10,
          "mode": 4
        }
      ]
    },
    {
      "name": "DSLR Camera.Shape_Back_Outer_0",
      "primitives": [
        {
          "attributes": {
            "NORMAL": 45,
            "POSITION": 44,
            "TEXCOORD_0": 46
          },
          "indices": 47,
          "material": 11,
          "mode": 4
        }
      ]
    }
  ],
  "nodes": [
    {
      "children": [
        1
      ],
      "matrix": [
        1.0,
        0.0,
        0.0,
        0.0,
        0.0,
        2.220446049250313e-16,
        -1.0,
        0.0,
        0.0,
        1.0,
        2.220446049250313e-16,
        0.0,
        0.0,
        0.0,
        0.0,
        1.0
      ],
      "name": "Sketchfab_model"
    },
    {
      "children": [
        2
      ],
      "matrix": [
        0.009999999776482582,
        0.0,
        0.0,
        0.0,
        0.0,
        0.0,
        0.009999999776482582,
        0.0,
        0.0,
        -0.009999999776482582,
        0.0,
        0.0,
        0.0,
        0.0,
        0.0,
        1.0
      ],
      "name": "Camera.fbx"
    },
    {
      "children": [
        3
      ],
      "name": "RootNode"
    },
    {
      "children": [
        4
      ],
      "name": "DSLR Camera"
    },
    {
      "children": [
        5,
        6,
        7,
        8,
        9,
        10,
        11,
        12,
        13,
        14,
        15,
        16
      ],
      "name": "DSLR Camera.Shape"
    },
    {
      "mesh": 0,
      "name": "DSLR Camera.Shape_Glass_0"
    },
    {
      "mesh": 1,
      "name": "DSLR Camera.Shape_Metal_0"
    },
    {
      "mesh": 2,
      "name": "DSLR Camera.Shape_Rubber_0"
    },
    {
      "mesh": 3,
      "name": "DSLR Camera.Shape_Dial_2_0"
    },
    {
      "mesh": 4,
      "name": "DSLR Camera.Shape_Screen_0"
    },
    {
      "mesh": 5,
      "name": "DSLR Camera.Shape_Lens_0"
    },
    {
      "mesh": 6,
      "name": "DSLR Camera.Shape_Button_0"
    },
    {
      "mesh": 7,
      "name": "DSLR Camera.Shape_Dial_0"
    },
    {
      "mesh": 8,
      "name": "DSLR Camera.Shape_Lens_Grip_0"
    },
    {
      "mesh": 9,
      "name": "DSLR Camera.Shape_Lens_Outer_0"
    },
    {
      "mesh": 10,
      "name": "DSLR Camera.Shape_Camera_Outer_0"
    },
    {
      "mesh": 11,
      "name": "DSLR Camera.Shape_Back_Outer_0"
    }
  ],
  "samplers": [
    {
      "magFilter": 9729,
      "minFilter": 9987,
      "wrapS": 10497,
      "wrapT": 10497
    }
  ],
  "scene": 0,
  "scenes": [
    {
      "name": "Sketchfab_Scene",
      "nodes": [
        0
      ]
    }
  ],
  "textures": [
    {
      "sampler": 0,
      "source": 0
    },
    {
      "sampler": 0,
      "source": 1
    }
  ]
}
